<?xml version="1.0" standalone="no"?>
<!DOCTYPE svg PUBLIC "-//W3C//DTD SVG 20010904//EN"
 "http://www.w3.org/TR/2001/REC-SVG-20010904/DTD/svg10.dtd">
<svg version="1.0" xmlns="http://www.w3.org/2000/svg"
 width="1280.000000pt" height="960.000000pt" viewBox="0 0 1280.000000 960.000000"
 preserveAspectRatio="xMidYMid meet">
<metadata>
Created by potrace 1.15, written by Peter Selinger 2001-2017
</metadata>
<g transform="translate(0.000000,960.000000) scale(0.100000,-0.100000)"
fill="#000000" stroke="none">
<path d="M7350 9200 c0 -27 3 -30 33 -30 l33 0 3 -259 c1 -142 -1 -290 -4
-328 l-7 -70 -74 -7 c-120 -11 -155 11 -99 64 24 23 26 29 23 120 l-3 95 -270
6 c-148 4 -638 7 -1088 8 l-818 1 -45 -26 -44 -26 0 -94 c0 -91 1 -95 25 -106
34 -15 36 -61 3 -53 -131 29 -158 31 -158 12 0 -8 18 -20 40 -27 22 -7 40 -15
40 -16 0 -2 -5 -15 -12 -29 -8 -19 -8 -31 0 -51 9 -18 9 -31 1 -45 -8 -15 -8
-28 1 -49 9 -22 9 -32 -1 -48 -11 -17 -11 -25 0 -45 10 -19 10 -29 1 -47 -9
-17 -9 -28 0 -50 9 -21 9 -34 0 -49 -8 -15 -8 -27 0 -42 8 -14 8 -29 2 -48 -6
-16 -6 -34 -2 -41 4 -7 6 -53 4 -103 -2 -58 0 -95 8 -104 8 -10 8 -17 0 -25
-15 -15 -15 -51 -2 -64 8 -8 7 -19 -1 -37 -9 -21 -9 -33 -1 -53 9 -18 9 -31 1
-45 -8 -15 -7 -29 1 -50 10 -23 10 -32 0 -44 -10 -12 -10 -21 0 -44 9 -22 9
-34 0 -50 -8 -15 -8 -27 0 -42 8 -13 8 -29 2 -47 -5 -15 -6 -35 -3 -45 4 -10
6 -77 5 -150 -1 -73 2 -137 8 -144 6 -7 5 -19 -4 -32 -10 -16 -10 -27 -1 -52
9 -23 9 -35 1 -49 -9 -14 -9 -25 0 -45 9 -19 9 -32 1 -46 -8 -15 -7 -29 1 -50
10 -23 10 -32 0 -44 -10 -12 -10 -21 0 -44 9 -22 9 -34 0 -50 -8 -15 -8 -27 0
-42 8 -13 8 -29 2 -47 -5 -15 -6 -35 -3 -45 4 -10 6 -77 5 -150 -1 -79 2 -137
9 -145 7 -9 7 -16 -1 -24 -15 -15 -15 -51 -2 -64 8 -8 7 -19 -1 -38 -10 -21
-10 -31 0 -50 11 -19 10 -27 0 -45 -12 -17 -12 -25 -1 -42 11 -17 11 -27 2
-49 -9 -21 -9 -34 0 -49 8 -16 8 -26 0 -42 -9 -15 -9 -28 0 -49 7 -16 9 -34 5
-40 -4 -6 -8 -41 -10 -78 -1 -37 -6 -142 -10 -234 -8 -181 -5 -198 41 -198 29
0 54 35 48 69 -9 51 -37 438 -38 526 0 50 -5 96 -10 103 -5 8 -4 18 3 25 14
14 14 50 -1 65 -9 9 -8 17 2 37 10 19 11 30 2 50 -9 19 -9 30 0 45 9 14 9 25
0 45 -9 19 -9 32 -1 46 8 15 8 28 -1 49 -9 21 -9 34 -1 49 8 14 8 27 0 44 -8
18 -8 30 0 46 9 15 9 26 1 42 -8 14 -8 29 -2 48 6 16 6 34 2 41 -4 7 -6 54 -4
106 2 51 0 95 -5 98 -5 4 -4 19 2 36 9 24 9 35 -2 51 -9 15 -10 24 -2 32 15
15 14 50 -1 65 -9 9 -8 18 2 37 12 22 12 30 1 47 -10 16 -10 26 -1 48 9 21 9
34 0 49 -8 16 -8 26 0 42 9 15 9 28 0 49 -9 21 -9 34 0 49 8 15 8 27 0 42 -8
14 -8 29 -2 48 6 16 6 34 2 41 -4 7 -6 53 -4 103 2 58 0 95 -8 104 -8 10 -8
17 0 25 15 15 15 51 2 64 -8 8 -7 19 1 38 10 21 10 31 0 50 -10 19 -10 27 0
44 10 16 10 26 1 47 -9 19 -9 32 -1 46 8 15 8 28 -1 49 -9 21 -9 34 -1 49 8
14 8 27 -1 45 -8 20 -8 32 0 52 9 18 9 31 1 45 -7 14 -7 30 -1 48 6 16 6 34 2
41 -4 7 -6 54 -4 103 2 58 -1 96 -8 104 -8 10 -8 17 0 25 15 15 15 51 2 64 -8
8 -7 19 1 38 10 22 10 32 0 48 -7 11 -11 22 -8 24 6 7 75 -24 83 -37 4 -7 10
-105 14 -218 8 -261 8 -261 181 -411 163 -142 168 -151 179 -303 11 -162 21
-186 83 -201 15 -3 27 -13 27 -21 0 -8 16 -21 35 -29 l35 -15 0 -94 c0 -82 2
-95 18 -99 39 -10 42 -1 42 128 l0 124 190 0 c183 0 190 -1 190 -20 0 -11 6
-20 14 -20 7 0 18 -6 23 -12 7 -8 13 -442 17 -1203 3 -654 9 -1550 12 -1990 5
-683 4 -828 -10 -990 -9 -104 -16 -245 -16 -312 0 -106 -2 -123 -17 -131 -10
-5 -76 -12 -148 -15 -71 -3 -140 -8 -151 -12 -12 -4 -29 -21 -39 -38 -16 -30
-24 -33 -107 -50 -118 -23 -232 -71 -277 -116 -46 -47 -66 -118 -65 -231 2
-89 35 -235 76 -328 32 -73 112 -186 203 -287 l83 -91 -13 -75 c-18 -107 -33
-156 -66 -221 -56 -110 -99 -248 -99 -315 0 -109 27 -117 471 -133 390 -15
487 -3 545 62 26 30 117 189 150 264 29 66 35 147 13 169 -21 21 -116 48 -165
46 -36 -1 -43 2 -48 23 -14 56 -16 96 -7 163 9 70 12 76 66 135 31 35 73 88
93 118 41 65 107 221 117 279 4 23 23 65 43 94 34 49 36 57 36 129 0 54 -5 84
-17 102 -9 14 -17 32 -17 41 0 31 -29 72 -69 98 -39 26 -41 30 -41 77 0 41 -4
51 -22 61 -13 7 -95 17 -183 23 -97 7 -169 17 -184 25 l-24 13 7 217 c3 119
10 268 15 331 6 69 6 666 0 1500 -10 1680 -12 2558 -4 2570 4 6 13 10 21 10 8
0 14 7 14 15 0 13 28 15 191 15 104 0 188 -4 185 -8 -6 -10 4 -24 29 -38 17
-10 21 -24 25 -110 5 -98 5 -99 30 -99 l25 0 3 133 3 132 63 29 c37 17 70 39
77 52 7 14 16 80 20 155 8 161 17 178 149 309 51 50 103 112 118 140 25 49 26
56 30 273 l4 223 110 -3 c160 -4 148 -34 148 377 l0 334 33 3 c27 2 33 8 35
31 l3 27 -95 0 -96 0 0 -30z m-2420 -700 c12 -8 11 -10 -7 -10 -12 0 -25 5
-28 10 -8 13 15 13 35 0z m30 -90 c0 -5 -7 -10 -15 -10 -8 0 -15 5 -15 10 0 6
7 10 15 10 8 0 15 -4 15 -10z m0 -95 c0 -6 -7 -12 -15 -12 -8 0 -15 6 -15 12
0 6 7 12 15 12 8 0 15 -6 15 -12z m0 -95 c0 -5 -7 -10 -15 -10 -8 0 -15 5 -15
10 0 6 7 10 15 10 8 0 15 -4 15 -10z m0 -95 c0 -9 -6 -12 -15 -9 -8 4 -12 10
-9 15 8 14 24 10 24 -6z m0 -95 c0 -5 -4 -10 -10 -10 -5 0 -10 5 -10 10 0 6 5
10 10 10 6 0 10 -4 10 -10z m0 -89 c0 -6 -4 -13 -10 -16 -5 -3 -10 1 -10 9 0
9 5 16 10 16 6 0 10 -4 10 -9z m10 -101 c0 -5 -7 -10 -15 -10 -8 0 -15 5 -15
10 0 6 7 10 15 10 8 0 15 -4 15 -10z m0 -89 c0 -5 -7 -11 -15 -15 -9 -3 -15 0
-15 9 0 8 7 15 15 15 8 0 15 -4 15 -9z m0 -96 c0 -6 -7 -12 -15 -12 -8 0 -15
6 -15 12 0 6 7 12 15 12 8 0 15 -6 15 -12z m0 -95 c0 -5 -7 -10 -15 -10 -8 0
-15 5 -15 10 0 6 7 10 15 10 8 0 15 -4 15 -10z m0 -95 c0 -6 -7 -12 -15 -12
-8 0 -15 6 -15 12 0 6 7 12 15 12 8 0 15 -6 15 -12z m0 -90 c0 -8 -7 -15 -15
-15 -26 0 -18 20 13 29 1 1 2 -6 2 -14z m0 -95 c0 -5 -7 -10 -15 -10 -8 0 -15
5 -15 10 0 6 7 10 15 10 8 0 15 -4 15 -10z m-4 -107 c-10 -10 -19 5 -10 18 6
11 8 11 12 0 2 -7 1 -15 -2 -18z m4 -83 c0 -5 -4 -10 -10 -10 -5 0 -10 5 -10
10 0 6 5 10 10 10 6 0 10 -4 10 -10z m4 -89 c3 -5 -1 -11 -9 -15 -9 -3 -15 0
-15 9 0 16 16 20 24 6z m6 -100 c0 -4 -7 -8 -15 -8 -8 0 -15 6 -15 13 0 8 6
11 15 8 8 -4 15 -9 15 -13z m0 -91 c0 -5 -7 -10 -15 -10 -8 0 -15 5 -15 10 0
6 7 10 15 10 8 0 15 -4 15 -10z m0 -93 c0 -8 -7 -14 -15 -14 -8 0 -15 6 -15
14 0 7 7 13 15 13 8 0 15 -6 15 -13z m0 -92 c0 -6 -7 -12 -15 -12 -8 0 -15 6
-15 12 0 6 7 12 15 12 8 0 15 -6 15 -12z m0 -95 c0 -5 -7 -10 -15 -10 -8 0
-15 5 -15 10 0 6 7 10 15 10 8 0 15 -4 15 -10z m0 -90 c0 -5 -7 -10 -15 -10
-8 0 -15 5 -15 10 0 6 7 10 15 10 8 0 15 -4 15 -10z m-4 -107 c-10 -10 -19 5
-10 18 6 11 8 11 12 0 2 -7 1 -15 -2 -18z m4 -83 c0 -5 -4 -10 -10 -10 -5 0
-10 5 -10 10 0 6 5 10 10 10 6 0 10 -4 10 -10z m10 -90 c0 -5 -7 -10 -15 -10
-8 0 -15 5 -15 10 0 6 7 10 15 10 8 0 15 -4 15 -10z m0 -93 c0 -8 -7 -14 -15
-14 -8 0 -15 6 -15 14 0 7 7 13 15 13 8 0 15 -6 15 -13z m0 -92 c0 -6 -7 -12
-15 -12 -8 0 -15 6 -15 12 0 6 7 12 15 12 8 0 15 -6 15 -12z m0 -95 c0 -5 -7
-10 -15 -10 -8 0 -15 5 -15 10 0 6 7 10 15 10 8 0 15 -4 15 -10z m0 -90 c0 -5
-7 -10 -15 -10 -8 0 -15 5 -15 10 0 6 7 10 15 10 8 0 15 -4 15 -10z m0 -95 c0
-9 -6 -12 -15 -9 -8 4 -15 10 -15 15 0 5 7 9 15 9 8 0 15 -7 15 -15z m-3 -102
c-3 -3 -11 -2 -17 2 -9 6 -9 10 1 16 14 8 27 -7 16 -18z m3 -83 c0 -5 -4 -10
-10 -10 -5 0 -10 5 -10 10 0 6 5 10 10 10 6 0 10 -4 10 -10z"/>
</g>
</svg>
